<?xml version="1.0" encoding="utf-8"?>
<!-- Generator: Adobe Illustrator 25.2.0, SVG Export Plug-In . SVG Version: 6.00 Build 0)  -->
<svg version="1.1" id="Layer_1" xmlns="http://www.w3.org/2000/svg" xmlns:xlink="http://www.w3.org/1999/xlink" x="0px" y="0px"
	 viewBox="0 0 276.81 71.96" style="enable-background:new 0 0 276.81 71.96;" xml:space="preserve">
<style type="text/css">
	.st0{fill:url(#SVGID_1_);}
	.st1{fill:url(#SVGID_2_);}
	.st2{fill:url(#SVGID_3_);}
	.st3{fill:#FAFAFA;}
</style>
<g>
	
		<linearGradient id="SVGID_1_" gradientUnits="userSpaceOnUse" x1="-346.7539" y1="528.7733" x2="-346.7539" y2="527.7733" gradientTransform="matrix(39.634 0 0 -45.768 13795.4688 24200.8965)">
		<stop  offset="0" style="stop-color:#08F89F"/>
		<stop  offset="1" style="stop-color:#047C50"/>
	</linearGradient>
	<path class="st0" d="M72.04,11.44L52.22,0L32.4,11.44v22.89l7.41,4.27c0.03,0.02,0.06,0.03,0.09,0.05l12.32,7.12l19.82-11.44V11.44
		z"/>
	
		<linearGradient id="SVGID_2_" gradientUnits="userSpaceOnUse" x1="-344.1397" y1="523.5946" x2="-344.1397" y2="522.5946" gradientTransform="matrix(23.89 0 0 -27.579 8288.6465 14484.5957)">
		<stop  offset="0" style="stop-color:#08F89F"/>
		<stop  offset="1" style="stop-color:#047C50"/>
	</linearGradient>
	<path class="st1" d="M55.2,51.28v13.8l2.23,1.28c0.03,0.01,0.06,0.03,0.09,0.05l9.63,5.56l11.94-6.89v-13.8l-11.94-6.89L55.2,51.28
		z"/>
	
		<linearGradient id="SVGID_3_" gradientUnits="userSpaceOnUse" x1="-347.3802" y1="530.0119" x2="-347.3802" y2="529.0119" gradientTransform="matrix(47.065 0 0 -54.34 16372.9844 28815.7832)">
		<stop  offset="0" style="stop-color:#08F89F"/>
		<stop  offset="1" style="stop-color:#047C50"/>
	</linearGradient>
	<path class="st2" d="M29.12,38.62l-1.5-0.87c-0.36-0.21-0.58-0.59-0.58-1V16.96l-3.51-2.03L0,28.52v27.17l8.67,5l0.05,0.03
		l14.82,8.56l23.53-13.59v-6.7l-17.9-10.33L29.12,38.62z"/>
	<polygon class="st3" points="108.86,42.05 100.37,23.51 96,23.51 107.85,48.01 109.91,48.01 118.13,29.61 118.13,48.01 
		121.76,48.01 121.76,23.51 116.94,23.51 	"/>
	<polygon class="st3" points="96,48.01 99.66,48.01 99.66,36.98 96,36.96 	"/>
	<polygon class="st3" points="133.22,23.51 123.16,48.01 126.84,48.01 134.26,29.93 134.33,29.74 134.33,29.75 134.34,29.74 
		134.34,29.75 134.35,29.74 134.41,29.93 141.84,48.01 145.52,48.01 135.46,23.51 	"/>
	<path class="st3" d="M165.09,32.19c0-4.93-3.85-8.66-8.66-8.69h-5.88h-3.63v3h9.47c2.78,0,5.06,2.39,5.06,5.68
		c0,3.33-2.29,5.68-5.06,5.68h-9.47v10.13h3.63v-7.12h5.72l4.8,7.12h4.02l-5.26-7.77C162.94,38.92,165.09,35.92,165.09,32.19z"/>
	<polygon class="st3" points="179.57,23.51 166.5,34.68 166.5,38.92 170.06,35.95 179.83,48.01 184.89,48.01 172.84,33.63 
		184.89,23.51 	"/>
	<polygon class="st3" points="208.66,40.32 202.06,23.51 198.17,23.51 207.61,48.01 209.67,48.01 219.11,23.51 215.22,23.51 	"/>
	<rect x="220.51" y="23.51" class="st3" width="3.62" height="24.5"/>
	<path class="st3" d="M243.69,32.19c0-4.93-3.85-8.66-8.66-8.69h-5.88h-3.63v3H235c2.78,0,5.06,2.39,5.06,5.68
		c0,3.33-2.29,5.68-5.06,5.68h-9.47v10.13h3.63v-7.12h5.72l4.8,7.12h4.02l-5.26-7.77C241.53,38.92,243.69,35.92,243.69,32.19z"/>
	<polygon class="st3" points="255.16,23.51 245.1,48.01 248.78,48.01 256.2,29.93 256.27,29.74 256.27,29.75 256.28,29.74 
		256.28,29.75 256.28,29.74 256.35,29.93 263.78,48.01 267.46,48.01 257.39,23.51 	"/>
	<path class="st3" d="M273.15,23.18v16.76c0,1.47-0.03,5.06-4.28,5.06v3.01c6.01,0,7.94-4.12,7.94-8.07V23.18H273.15z"/>
</g>
</svg>
